<svg width="38" height="38" viewBox="0 0 38 38" fill="none" xmlns="http://www.w3.org/2000/svg">
<g clip-path="url(#clip0)">
<path d="M37.4316 23.5948C34.893 33.7788 24.575 39.9696 14.4055 37.4308C4.22124 34.8923 -1.96949 24.5747 0.569238 14.4054C3.10782 4.22137 13.4109 -1.96937 23.5952 0.569361C33.7646 3.0931 39.9703 13.4107 37.4316 23.5948Z" fill="url(#paint0_linear)"/>
<path d="M28.0473 16.6324C28.4184 14.109 26.5035 12.7433 23.8613 11.8379L24.7223 8.40896L22.6441 7.88943L21.8129 11.2293C21.2637 11.0957 20.6996 10.9621 20.1355 10.8433L20.9668 7.48865L18.8887 6.96912L18.0426 10.3832C17.5824 10.2793 17.1371 10.1754 16.7066 10.0715V10.0566L13.827 9.34412L13.2777 11.5707C13.2777 11.5707 14.8215 11.9269 14.7918 11.9418C15.6379 12.1496 15.7863 12.7136 15.7566 13.159L14.777 17.0629C14.8363 17.0777 14.9105 17.0926 14.9996 17.1371C14.9254 17.1222 14.8512 17.1074 14.777 17.0777L13.4113 22.5402C13.3074 22.7926 13.0402 23.1785 12.4613 23.0301C12.4762 23.0597 10.9473 22.659 10.9473 22.659L9.9082 25.0488L12.6246 25.7316C13.1293 25.8652 13.6191 25.984 14.109 26.1176L13.248 29.5762L15.3262 30.0957L16.1871 26.6668C16.7512 26.8152 17.3152 26.9636 17.8496 27.0972L17.0035 30.5113L19.0816 31.0308L19.9426 27.5722C23.5051 28.2402 26.177 27.973 27.2902 24.7519C28.1957 22.1691 27.2457 20.6699 25.3754 19.6902C26.7559 19.3785 27.7801 18.473 28.0473 16.6324ZM23.2824 23.3121C22.6441 25.8949 18.2801 24.4996 16.8699 24.1433L18.0129 19.5566C19.423 19.9129 23.9652 20.6105 23.2824 23.3121ZM23.9355 16.5879C23.3418 18.948 19.7199 17.7457 18.5473 17.4488L19.5863 13.2926C20.759 13.5894 24.5441 14.1386 23.9355 16.5879Z" fill="white"/>
</g>
<defs>
<linearGradient id="paint0_linear" x1="18.9897" y1="-0.00899792" x2="18.9897" y2="37.9963" gradientUnits="userSpaceOnUse">
<stop stop-color="#F9AA4B"/>
<stop offset="1" stop-color="#F7931A"/>
</linearGradient>
<clipPath id="clip0">
<rect width="38" height="38" fill="white"/>
</clipPath>
</defs>
</svg>
