<svg width="30" height="30" viewBox="0 0 30 30" fill="none" xmlns="http://www.w3.org/2000/svg">
<rect width="30" height="30" rx="5" fill="#2C2C3E"/>
<path d="M22.5066 9.85168L18.244 5.85952C17.9824 5.61454 17.5583 5.61454 17.2968 5.85952C17.0352 6.1045 17.0352 6.50168 17.2968 6.74666L20.4159 9.66795H10.6464C8.79676 9.66795 7.29736 11.0722 7.29736 12.8045V14.6864C7.29736 15.0329 7.59724 15.3137 7.96716 15.3137C8.33708 15.3137 8.63696 15.0329 8.63696 14.6864V12.8045C8.63696 11.7651 9.5366 10.9226 10.6464 10.9226H20.4159L17.2968 13.8439C17.0352 14.0888 17.0352 14.486 17.2968 14.731C17.5583 14.976 17.9824 14.976 18.244 14.731L22.5066 10.7388C22.7682 10.4939 22.7682 10.0967 22.5066 9.85168Z" fill="#7B98F9"/>
<path d="M7.49354 20.1485L11.7561 24.1407C12.0177 24.3857 12.4418 24.3857 12.7034 24.1407C12.9649 23.8957 12.9649 23.4985 12.7034 23.2535L9.5842 20.3323H19.3538C21.2034 20.3323 22.7028 18.928 22.7028 17.1957V14.6865C22.7028 14.34 22.4029 14.0592 22.033 14.0592C21.663 14.0592 21.3632 14.34 21.3632 14.6865V17.1957C21.3632 18.2351 20.4635 19.0776 19.3538 19.0776H9.5842L12.7034 16.1564C12.9649 15.9114 12.9649 15.5142 12.7034 15.2692C12.4418 15.0242 12.0177 15.0242 11.7561 15.2692L7.49354 19.2614C7.23197 19.5064 7.23197 19.9035 7.49354 20.1485Z" fill="#7B98F9"/>
</svg>
