<svg width="24" height="24" viewBox="0 0 24 24" fill="none" xmlns="http://www.w3.org/2000/svg">
<path fill-rule="evenodd" clip-rule="evenodd" d="M16.8002 9.12003H10.0802C9.54996 9.12003 9.12016 9.54984 9.12016 10.08V16.8C9.12016 17.3302 9.54996 17.76 10.0802 17.76H16.8002C17.3303 17.76 17.7602 17.3302 17.7602 16.8V10.08C17.7602 9.54984 17.3303 9.12003 16.8002 9.12003ZM10.0802 8.16003C9.01977 8.16003 8.16016 9.01965 8.16016 10.08V16.8C8.16016 17.8604 9.01977 18.72 10.0802 18.72H16.8002C17.8605 18.72 18.7202 17.8604 18.7202 16.8V10.08C18.7202 9.01965 17.8605 8.16003 16.8002 8.16003H10.0802Z" fill="white"/>
<path fill-rule="evenodd" clip-rule="evenodd" d="M7.67977 6.72001H15.3598C15.6249 6.72001 15.8398 6.50511 15.8398 6.24001C15.8398 5.97491 15.6249 5.76001 15.3598 5.76001H7.67977C6.61938 5.76001 5.75977 6.61962 5.75977 7.68001V15.6C5.75977 15.8651 5.97467 16.08 6.23977 16.08C6.50486 16.08 6.71977 15.8651 6.71977 15.6V7.68001C6.71977 7.14982 7.14957 6.72001 7.67977 6.72001Z" fill="white"/>
</svg>
