<svg width="30" height="30" viewBox="0 0 30 30" fill="none" xmlns="http://www.w3.org/2000/svg">
<rect width="30" height="30" rx="5" fill="#2C2C3E"/>
<path fill-rule="evenodd" clip-rule="evenodd" d="M7.97631 17.0984C8.60143 16.3951 9.44928 16 10.3333 16H15.6667C16.5507 16 17.3986 16.3951 18.0237 17.0984C18.6488 17.8016 19 18.7554 19 19.75V21.25C19 21.6642 18.7015 22 18.3333 22C17.9651 22 17.6667 21.6642 17.6667 21.25V19.75C17.6667 19.1533 17.456 18.581 17.0809 18.159C16.7058 17.7371 16.1971 17.5 15.6667 17.5H10.3333C9.8029 17.5 9.29419 17.7371 8.91912 18.159C8.54405 18.581 8.33333 19.1533 8.33333 19.75V21.25C8.33333 21.6642 8.03486 22 7.66667 22C7.29848 22 7 21.6642 7 21.25V19.75C7 18.7554 7.35119 17.8016 7.97631 17.0984Z" fill="#7B98F9"/>
<path fill-rule="evenodd" clip-rule="evenodd" d="M12.5 9.4C11.3402 9.4 10.4 10.3402 10.4 11.5C10.4 12.6598 11.3402 13.6 12.5 13.6C13.6598 13.6 14.6 12.6598 14.6 11.5C14.6 10.3402 13.6598 9.4 12.5 9.4ZM9 11.5C9 9.567 10.567 8 12.5 8C14.433 8 16 9.567 16 11.5C16 13.433 14.433 15 12.5 15C10.567 15 9 13.433 9 11.5Z" fill="#7B98F9"/>
<path fill-rule="evenodd" clip-rule="evenodd" d="M20.0192 16.572C20.102 16.1643 20.4293 15.9191 20.7501 16.0244C21.3937 16.2355 21.9638 16.7123 22.3711 17.3798C22.7783 18.0473 22.9995 18.8678 23 19.7123V21.2376C23 21.6587 22.7314 22 22.4 22C22.0687 22 21.8001 21.6587 21.8001 21.2376V19.7135V19.7135C21.7997 19.2068 21.667 18.7144 21.4227 18.3139C21.1784 17.9134 20.8363 17.6274 20.4501 17.5007C20.1293 17.3954 19.9364 16.9796 20.0192 16.572Z" fill="#7B98F9"/>
<path fill-rule="evenodd" clip-rule="evenodd" d="M17.0252 8.54002C17.1346 8.15591 17.5697 7.92426 17.997 8.02261C18.856 8.2203 19.6174 8.66936 20.1612 9.29898C20.7049 9.92859 21 10.703 21 11.5C21 12.297 20.7049 13.0714 20.1612 13.701C19.6174 14.3306 18.856 14.7797 17.997 14.9774C17.5697 15.0757 17.1346 14.8441 17.0252 14.46C16.9157 14.0759 17.1735 13.6848 17.6008 13.5864C18.1162 13.4678 18.573 13.1984 18.8993 12.8206C19.2255 12.4428 19.4026 11.9782 19.4026 11.5C19.4026 11.0218 19.2255 10.5572 18.8993 10.1794C18.573 9.80162 18.1162 9.53218 17.6008 9.41356C17.1735 9.31522 16.9157 8.92412 17.0252 8.54002Z" fill="#7B98F9"/>
</svg>
