<svg width="30" height="30" viewBox="0 0 30 30" fill="none" xmlns="http://www.w3.org/2000/svg">
<rect width="30" height="30" rx="5" fill="#2C2C3E"/>
<path d="M8.4 8.18519H16.8C17.1016 8.18519 17.3772 8.29509 17.5881 8.47656C17.7733 8.636 17.9908 8.77778 18.2365 8.77778C18.6862 8.77778 19.0125 8.34879 18.7499 7.98812C18.3143 7.38971 17.6032 7 16.8 7H8.4C7.07452 7 6 8.06125 6 9.37037V20.6296C6 21.9387 7.07452 23 8.4 23H16.8C17.6032 23 18.3143 22.6103 18.7499 22.0119C19.0125 21.6512 18.6862 21.2222 18.2365 21.2222C17.9908 21.2222 17.7733 21.364 17.5881 21.5234C17.3772 21.7049 17.1016 21.8148 16.8 21.8148H8.4C7.73726 21.8148 7.2 21.2842 7.2 20.6296V9.37037C7.2 8.71581 7.73726 8.18519 8.4 8.18519Z" fill="#7B98F9"/>
<path d="M8.4 10.5556C8.4 10.2283 8.66863 9.96296 9 9.96296H13.2C13.5314 9.96296 13.8 10.2283 13.8 10.5556C13.8 10.8828 13.5314 11.1481 13.2 11.1481H9C8.66863 11.1481 8.4 10.8828 8.4 10.5556Z" fill="#7B98F9"/>
<path d="M8.4 13.5185C8.4 13.1912 8.66863 12.9259 9 12.9259H11.4C11.7314 12.9259 12 13.1912 12 13.5185C12 13.8458 11.7314 14.1111 11.4 14.1111H9C8.66863 14.1111 8.4 13.8458 8.4 13.5185Z" fill="#7B98F9"/>
<path d="M8.4 16.4815C8.4 16.1542 8.66863 15.8889 9 15.8889H11.4C11.7314 15.8889 12 16.1542 12 16.4815C12 16.8088 11.7314 17.0741 11.4 17.0741H9C8.66863 17.0741 8.4 16.8088 8.4 16.4815Z" fill="#7B98F9"/>
<path d="M8.4 19.4444C8.4 19.1172 8.66863 18.8519 9 18.8519H12.6C12.9314 18.8519 13.2 19.1172 13.2 19.4444C13.2 19.7717 12.9314 20.037 12.6 20.037H9C8.66863 20.037 8.4 19.7717 8.4 19.4444Z" fill="#7B98F9"/>
<path fill-rule="evenodd" clip-rule="evenodd" d="M18.6 19.4444C20.9196 19.4444 22.8 17.5873 22.8 15.2963C22.8 13.0053 20.9196 11.1481 18.6 11.1481C16.2804 11.1481 14.4 13.0053 14.4 15.2963C14.4 17.5873 16.2804 19.4444 18.6 19.4444ZM18.6 20.6296C21.5823 20.6296 24 18.2418 24 15.2963C24 12.3508 21.5823 9.96296 18.6 9.96296C15.6177 9.96296 13.2 12.3508 13.2 15.2963C13.2 18.2418 15.6177 20.6296 18.6 20.6296Z" fill="#7B98F9"/>
<path fill-rule="evenodd" clip-rule="evenodd" d="M22.8 15.2963C22.8 17.5873 20.9196 19.4444 18.6 19.4444C16.2804 19.4444 14.4 17.5873 14.4 15.2963C14.4 13.0053 16.2804 11.1481 18.6 11.1481C20.9196 11.1481 22.8 13.0053 22.8 15.2963ZM19.2 12.9259V14.7037H19.8C20.1314 14.7037 20.4 14.969 20.4 15.2963C20.4 15.6236 20.1314 15.8889 19.8 15.8889H18.6C18.2686 15.8889 18 15.6236 18 15.2963V12.9259C18 12.5986 18.2686 12.3333 18.6 12.3333C18.9314 12.3333 19.2 12.5986 19.2 12.9259Z" fill="#7B98F9"/>
</svg>
