<svg width="30" height="30" viewBox="0 0 30 30" fill="none" xmlns="http://www.w3.org/2000/svg">
<rect width="30" height="30" rx="5" fill="#2C2C3E"/>
<path d="M15.6528 21.0911L15.1379 23.3181C15.1201 23.3996 15.1207 23.4839 15.1397 23.5651C15.1586 23.6462 15.1954 23.7221 15.2473 23.7872C15.2993 23.8522 15.3651 23.9048 15.4399 23.9412C15.5148 23.9775 15.5967 23.9966 15.6799 23.9971C15.7186 24.001 15.7577 24.001 15.7964 23.9971L18.0322 23.4811L22.325 19.1954L19.9293 16.8L15.6528 21.0911Z" fill="#7B98F9"/>
<path d="M23.9514 16.8414L22.2806 15.1706C22.1708 15.0614 22.0221 15 21.8672 15C21.7122 15 21.5636 15.0614 21.4537 15.1706L20.5249 16.0995L23.0254 18.6L23.9543 17.6712C24.0086 17.6165 24.0517 17.5517 24.0809 17.4804C24.1102 17.4091 24.1252 17.3328 24.1249 17.2557C24.1246 17.1786 24.1092 17.1024 24.0794 17.0313C24.0496 16.9602 24.0062 16.8957 23.9514 16.8414V16.8414Z" fill="#7B98F9"/>
<mask id="mask0" mask-type="alpha" maskUnits="userSpaceOnUse" x="6" y="6" width="16" height="17">
<path fill-rule="evenodd" clip-rule="evenodd" d="M14.375 15C16.4461 15 18.125 13.3211 18.125 11.25C18.125 9.17893 16.4461 7.5 14.375 7.5C12.3039 7.5 10.625 9.17893 10.625 11.25C10.625 13.3211 12.3039 15 14.375 15ZM14.375 16.5C17.2745 16.5 19.625 14.1495 19.625 11.25C19.625 8.35051 17.2745 6 14.375 6C11.4755 6 9.125 8.35051 9.125 11.25C9.125 14.1495 11.4755 16.5 14.375 16.5Z" fill="white"/>
<path fill-rule="evenodd" clip-rule="evenodd" d="M8.375 15.9253L11.2393 14.9609L10.7607 13.5393L6.875 14.8476V18.7501C6.875 20.8212 8.55393 22.5001 10.625 22.5001H18.125C20.1961 22.5001 21.875 20.8212 21.875 18.7501V14.8476L17.9893 13.5393L17.5107 14.9609L20.375 15.9253V18.7501C20.375 19.9927 19.3676 21.0001 18.125 21.0001H10.625C9.38236 21.0001 8.375 19.9927 8.375 18.7501V15.9253Z" fill="white"/>
</mask>
<g mask="url(#mask0)">
<path d="M15.9136 0.333252L25.1521 9.57178L14.7499 19.9739L13.2499 25.125L6.49993 21.375L1.09434 15.1525L15.9136 0.333252Z" fill="#7B98F9"/>
</g>
</svg>
