<svg width="30" height="30" viewBox="0 0 30 30" fill="none" xmlns="http://www.w3.org/2000/svg">
<rect width="30" height="30" rx="5" fill="#2C2C3E"/>
<path fill-rule="evenodd" clip-rule="evenodd" d="M9.80769 7L13.4159 10.8931C13.6844 11.1828 13.6815 11.6495 13.4093 11.9353C13.1371 12.2212 12.6988 12.2181 12.4303 11.9283L10.5 9.84565V16.1562C10.5 16.5632 10.19 16.8932 9.80769 16.8932C9.42534 16.8932 9.11538 16.5632 9.11538 16.1562V9.84565L7.18513 11.9283C6.91659 12.2181 6.47825 12.2212 6.20608 11.9353C5.9339 11.6495 5.93095 11.1828 6.19949 10.8931L9.80769 7ZM20.1923 7L23.8005 10.8931C24.069 11.1828 24.0661 11.6495 23.7939 11.9353C23.5217 12.2212 23.0834 12.2181 22.8149 11.9283L20.8846 9.84565V16.1562C20.8846 16.5632 20.5747 16.8932 20.1923 16.8932C19.81 16.8932 19.5 16.5632 19.5 16.1562V9.84565L17.5697 11.9283C17.3012 12.2181 16.8629 12.2212 16.5907 11.9353C16.3185 11.6495 16.3156 11.1828 16.5841 10.8931L20.1923 7ZM15 15.0384L18.2897 19.0316C18.5418 19.3376 18.5132 19.8033 18.2257 20.0716C17.9382 20.34 17.5008 20.3095 17.2487 20.0035L15.6923 18.1143V24.263C15.6923 24.67 15.3824 25 15 25C14.6176 25 14.3077 24.67 14.3077 24.263V18.1143L12.7513 20.0035C12.4992 20.3095 12.0618 20.34 11.7743 20.0716C11.4868 19.8033 11.4582 19.3376 11.7103 19.0316L15 15.0384Z" fill="#7B98F9"/>
</svg>
