<svg width="20" height="20" viewBox="0 0 20 20" fill="none" xmlns="http://www.w3.org/2000/svg">
<path d="M8.84616 5.38462C7.35924 5.38462 6.15385 6.59 6.15385 8.07692C6.15385 9.56384 7.35923 10.7692 8.84615 10.7692H11.1538C11.7911 10.7692 12.3077 11.2858 12.3077 11.9231C12.3077 12.5603 11.7911 13.0769 11.1538 13.0769H7.53846C7.11363 13.0769 6.76923 13.4213 6.76923 13.8462C6.76923 14.271 7.11363 14.6154 7.53846 14.6154H9.23077V15.3846C9.23077 15.8095 9.57517 16.1538 10 16.1538C10.4248 16.1538 10.7692 15.8095 10.7692 15.3846V14.6154H11.1538C12.6408 14.6154 13.8462 13.41 13.8462 11.9231C13.8462 10.4362 12.6408 9.23077 11.1538 9.23077H8.84615C8.2089 9.23077 7.69231 8.71417 7.69231 8.07692C7.69231 7.43967 8.2089 6.92308 8.84616 6.92308H11.8462C12.271 6.92308 12.6154 6.57868 12.6154 6.15385C12.6154 5.72901 12.271 5.38462 11.8462 5.38462H10.7692V4.61538C10.7692 4.19055 10.4248 3.84615 10 3.84615C9.57517 3.84615 9.23077 4.19055 9.23077 4.61538V5.38462H8.84616Z" fill="white"/>
<path fill-rule="evenodd" clip-rule="evenodd" d="M20 10C20 15.5228 15.5228 20 10 20C4.47715 20 0 15.5228 0 10C0 4.47715 4.47715 0 10 0C15.5228 0 20 4.47715 20 10ZM18.4615 10C18.4615 14.6732 14.6732 18.4615 10 18.4615C5.32682 18.4615 1.53846 14.6732 1.53846 10C1.53846 5.32682 5.32682 1.53846 10 1.53846C14.6732 1.53846 18.4615 5.32682 18.4615 10Z" fill="white"/>
</svg>
