<svg width="30" height="30" viewBox="0 0 30 30" fill="none" xmlns="http://www.w3.org/2000/svg">
<rect width="30" height="30" rx="5" fill="#2C2C3E"/>
<path d="M11.36 9.77778C11.0507 9.77778 10.8 10.0597 10.8 10.4074C10.8 10.7551 11.0507 11.037 11.36 11.037H18.64C18.9493 11.037 19.2 10.7551 19.2 10.4074C19.2 10.0597 18.9493 9.77778 18.64 9.77778H11.36Z" fill="#7B98F9"/>
<path d="M10.8 13.5556C10.8 13.2078 11.0507 12.9259 11.36 12.9259H18.64C18.9493 12.9259 19.2 13.2078 19.2 13.5556C19.2 13.9033 18.9493 14.1852 18.64 14.1852H11.36C11.0507 14.1852 10.8 13.9033 10.8 13.5556Z" fill="#7B98F9"/>
<path d="M11.36 16.0741C11.0507 16.0741 10.8 16.356 10.8 16.7037C10.8 17.0514 11.0507 17.3333 11.36 17.3333H15.84C16.1493 17.3333 16.4 17.0514 16.4 16.7037C16.4 16.356 16.1493 16.0741 15.84 16.0741H11.36Z" fill="#7B98F9"/>
<path fill-rule="evenodd" clip-rule="evenodd" d="M22 23L18.64 21.3L15 23L11.64 21.3L8 23V8.51852C8 7.12758 9.00288 6 10.24 6H19.76C20.9971 6 22 7.12758 22 8.51852V23ZM18.2104 20.1371L15.0178 21.6281L12.0996 20.1517C11.8177 20.009 11.4959 20.0037 11.2104 20.1371L9.12 21.1133V8.51852C9.12 7.82305 9.62144 7.25926 10.24 7.25926H19.76C20.3786 7.25926 20.88 7.82305 20.88 8.51852V21.0524L19.0996 20.1517C18.8177 20.009 18.4959 20.0037 18.2104 20.1371Z" fill="#7B98F9"/>
</svg>
