<svg width="16" height="14" viewBox="0 0 16 14" fill="none" xmlns="http://www.w3.org/2000/svg">
<path d="M14.8934 6.09527L14.8884 6.09308L1.54219 0.557456C1.42993 0.510471 1.30778 0.492044 1.18666 0.503824C1.06554 0.515603 0.949225 0.557222 0.848125 0.624956C0.741311 0.694946 0.653573 0.790394 0.592805 0.902711C0.532037 1.01503 0.500145 1.14069 0.5 1.26839V4.80871C0.50006 4.98328 0.561019 5.15237 0.67237 5.28683C0.783722 5.42128 0.938491 5.51268 1.11 5.54527L8.38906 6.89121C8.41767 6.89663 8.44348 6.91186 8.46205 6.93429C8.48062 6.95671 8.49078 6.98491 8.49078 7.01402C8.49078 7.04313 8.48062 7.07133 8.46205 7.09375C8.44348 7.11617 8.41767 7.13141 8.38906 7.13683L1.11031 8.48277C0.938851 8.51527 0.784092 8.60655 0.67269 8.74088C0.561288 8.87522 0.500219 9.04419 0.5 9.21871V12.7596C0.499917 12.8816 0.530111 13.0016 0.587871 13.109C0.645632 13.2164 0.729152 13.3078 0.830938 13.375C0.953375 13.4563 1.09706 13.4998 1.24406 13.5C1.34626 13.4999 1.4474 13.4794 1.54156 13.4396L14.8875 7.93558L14.8934 7.93277C15.0731 7.85556 15.2262 7.72739 15.3337 7.56409C15.4413 7.4008 15.4986 7.20955 15.4986 7.01402C15.4986 6.81848 15.4413 6.62724 15.3337 6.46395C15.2262 6.30065 15.0731 6.17247 14.8934 6.09527Z" fill="white"/>
</svg>
