<svg width="30" height="30" viewBox="0 0 30 30" fill="none" xmlns="http://www.w3.org/2000/svg">
<rect width="30" height="30" rx="5" fill="#2C2C3E"/>
<path fill-rule="evenodd" clip-rule="evenodd" d="M9.64 6.60667C9.64 6.27161 9.91161 6 10.2467 6C10.5817 6 10.8533 6.27161 10.8533 6.60667V7.82H12.0667V6.60667C12.0667 6.27161 12.3383 6 12.6733 6C13.0084 6 13.28 6.27161 13.28 6.60667V7.82H14.4933V6.60667C14.4933 6.27161 14.7649 6 15.1 6C15.4351 6 15.7067 6.27161 15.7067 6.60667V7.82H16.92V6.60667C16.92 6.27161 17.1916 6 17.5267 6C17.8617 6 18.1333 6.27161 18.1333 6.60667V7.82H19.3467V6.60667C19.3467 6.27161 19.6183 6 19.9533 6C20.2884 6 20.56 6.27161 20.56 6.60667V7.82C20.56 7.84549 20.5584 7.8706 20.5554 7.89527C21.4118 8.1139 22.0861 8.78815 22.3047 9.64463C22.3294 9.64158 22.3545 9.64 22.38 9.64H23.5933C23.9284 9.64 24.2 9.91161 24.2 10.2467C24.2 10.5817 23.9284 10.8533 23.5933 10.8533H22.38V12.0667H23.5933C23.9284 12.0667 24.2 12.3383 24.2 12.6733C24.2 13.0084 23.9284 13.28 23.5933 13.28H22.38V14.4933H23.5933C23.9284 14.4933 24.2 14.7649 24.2 15.1C24.2 15.4351 23.9284 15.7067 23.5933 15.7067H22.38V16.92H23.5933C23.9284 16.92 24.2 17.1916 24.2 17.5267C24.2 17.8617 23.9284 18.1333 23.5933 18.1333H22.38V19.3467H23.5933C23.9284 19.3467 24.2 19.6183 24.2 19.9533C24.2 20.2884 23.9284 20.56 23.5933 20.56H22.38C22.3545 20.56 22.3294 20.5584 22.3047 20.5554C22.0861 21.4118 21.4118 22.0861 20.5554 22.3047C20.5584 22.3294 20.56 22.3545 20.56 22.38V23.5933C20.56 23.9284 20.2884 24.2 19.9533 24.2C19.6183 24.2 19.3467 23.9284 19.3467 23.5933V22.38H18.1333V23.5933C18.1333 23.9284 17.8617 24.2 17.5267 24.2C17.1916 24.2 16.92 23.9284 16.92 23.5933V22.38H15.7067V23.5933C15.7067 23.9284 15.4351 24.2 15.1 24.2C14.7649 24.2 14.4933 23.9284 14.4933 23.5933V22.38H13.28V23.5933C13.28 23.9284 13.0084 24.2 12.6733 24.2C12.3383 24.2 12.0667 23.9284 12.0667 23.5933V22.38H10.8533V23.5933C10.8533 23.9284 10.5817 24.2 10.2467 24.2C9.91161 24.2 9.64 23.9284 9.64 23.5933V22.38C9.64 22.3545 9.64158 22.3294 9.64463 22.3047C8.78815 22.0861 8.1139 21.4118 7.89527 20.5554C7.8706 20.5584 7.84549 20.56 7.82 20.56H6.60667C6.27161 20.56 6 20.2884 6 19.9533C6 19.6183 6.27161 19.3467 6.60667 19.3467H7.82V18.1333H6.60667C6.27161 18.1333 6 17.8617 6 17.5267C6 17.1916 6.27161 16.92 6.60667 16.92H7.82V15.7067H6.60667C6.27161 15.7067 6 15.4351 6 15.1C6 14.7649 6.27161 14.4933 6.60667 14.4933H7.82V13.28H6.60667C6.27161 13.28 6 13.0084 6 12.6733C6 12.3383 6.27161 12.0667 6.60667 12.0667H7.82V10.8533H6.60667C6.27161 10.8533 6 10.5817 6 10.2467C6 9.91161 6.27161 9.64 6.60667 9.64H7.82C7.84549 9.64 7.8706 9.64158 7.89526 9.64463C8.1139 8.78815 8.78815 8.1139 9.64462 7.89527C9.64157 7.87061 9.64 7.84549 9.64 7.82V6.60667ZM19.9533 9.03333C20.6234 9.03333 21.1667 9.57656 21.1667 10.2467V19.9533C21.1667 20.6234 20.6234 21.1667 19.9533 21.1667H10.2467C9.57656 21.1667 9.03333 20.6234 9.03333 19.9533V10.2467C9.03333 9.57656 9.57656 9.03333 10.2467 9.03333H19.9533ZM10.8533 12.6733C10.8533 11.6682 11.6682 10.8533 12.6733 10.8533H17.5267C18.5318 10.8533 19.3467 11.6682 19.3467 12.6733V14.3461C19.3467 14.8288 19.1549 15.2917 18.8136 15.6331L15.6331 18.8136C15.2917 19.1549 14.8288 19.3467 14.3461 19.3467H12.6733C11.6682 19.3467 10.8533 18.5318 10.8533 17.5267V12.6733ZM14.4209 13.7138C14.2257 13.5186 13.9091 13.5186 13.7138 13.7138C13.5186 13.9091 13.5186 14.2257 13.7138 14.4209L14.3284 15.0355L13.7138 15.65C13.5186 15.8453 13.5186 16.1618 13.7138 16.3571C13.9091 16.5524 14.2257 16.5524 14.4209 16.3571L15.0355 15.7426L15.65 16.3571C15.8453 16.5524 16.1618 16.5524 16.3571 16.3571C16.5524 16.1618 16.5524 15.8453 16.3571 15.65L15.7426 15.0355L16.3571 14.4209C16.5524 14.2257 16.5524 13.9091 16.3571 13.7138C16.1618 13.5186 15.8453 13.5186 15.65 13.7138L15.0355 14.3284L14.4209 13.7138Z" fill="#7B98F9"/>
</svg>
