<svg width="30" height="30" viewBox="0 0 30 30" fill="none" xmlns="http://www.w3.org/2000/svg">
<rect width="30" height="30" rx="5" fill="#2C2C3E"/>
<path fill-rule="evenodd" clip-rule="evenodd" d="M7 8.88C7 7.28942 8.26853 6 9.83333 6H18.3333C19.8981 6 21.1667 7.28942 21.1667 8.88V10.032C21.1667 10.4296 20.8495 10.752 20.4583 10.752C20.0671 10.752 19.75 10.4296 19.75 10.032V8.88C19.75 8.08471 19.1157 7.44 18.3333 7.44H9.83333C9.05093 7.44 8.41667 8.08471 8.41667 8.88V21.12C8.41667 21.9153 9.05093 22.56 9.83333 22.56H18.3333C19.1157 22.56 19.75 21.9153 19.75 21.12V19.968C19.75 19.5704 20.0671 19.248 20.4583 19.248C20.8495 19.248 21.1667 19.5704 21.1667 19.968V21.12C21.1667 22.7106 19.8981 24 18.3333 24H9.83333C8.26853 24 7 22.7106 7 21.12V8.88ZM24 9.6V20.4L20.6 17.808C20.3548 17.6211 20.0565 17.52 19.75 17.52H16.9167C16.1343 17.52 15.5 16.8753 15.5 16.08V13.92C15.5 13.1247 16.1343 12.48 16.9167 12.48H19.75C20.0565 12.48 20.3548 12.3789 20.6 12.192L24 9.6ZM9.89773 10.4C9.89773 10.0024 10.2149 9.68 10.6061 9.68H17.5606C17.9518 9.68 18.2689 10.0024 18.2689 10.4C18.2689 10.7976 17.9518 11.12 17.5606 11.12H10.6061C10.2149 11.12 9.89773 10.7976 9.89773 10.4ZM22.5833 12.48L21.45 13.344C20.9596 13.7179 20.363 13.92 19.75 13.92H16.9167V16.08H19.75C20.363 16.08 20.9596 16.2821 21.45 16.656L22.5833 17.52V12.48ZM9.89773 13.4667C9.89773 13.069 10.2149 12.7467 10.6061 12.7467H14.0833C14.4745 12.7467 14.7917 13.069 14.7917 13.4667C14.7917 13.8643 14.4745 14.1867 14.0833 14.1867H10.6061C10.2149 14.1867 9.89773 13.8643 9.89773 13.4667ZM9.89773 16.5333C9.89773 16.1357 10.2149 15.8133 10.6061 15.8133H14.0833C14.4745 15.8133 14.7917 16.1357 14.7917 16.5333C14.7917 16.931 14.4745 17.2533 14.0833 17.2533H10.6061C10.2149 17.2533 9.89773 16.931 9.89773 16.5333ZM9.89773 19.6C9.89773 19.2024 10.2149 18.88 10.6061 18.88H17.5606C17.9518 18.88 18.2689 19.2024 18.2689 19.6C18.2689 19.9976 17.9518 20.32 17.5606 20.32H10.6061C10.2149 20.32 9.89773 19.9976 9.89773 19.6Z" fill="#7B98F9"/>
</svg>
