<svg width="30" height="30" viewBox="0 0 30 30" fill="none" xmlns="http://www.w3.org/2000/svg">
<rect width="30" height="30" rx="5" fill="#2C2C3E"/>
<path d="M8.66667 7.33333H18C18.3351 7.33333 18.6414 7.45697 18.8756 7.66113C19.0814 7.8405 19.3231 8 19.5961 8C20.0958 8 20.4583 7.51739 20.1666 7.11164C19.6825 6.43842 18.8925 6 18 6H8.66667C7.19391 6 6 7.19391 6 8.66667V21.3333C6 22.8061 7.19391 24 8.66667 24H18C18.8925 24 19.6825 23.5616 20.1666 22.8884C20.4583 22.4826 20.0958 22 19.5961 22C19.3231 22 19.0814 22.1595 18.8756 22.3389C18.6414 22.543 18.3351 22.6667 18 22.6667H8.66667C7.93029 22.6667 7.33333 22.0697 7.33333 21.3333V8.66667C7.33333 7.93029 7.93029 7.33333 8.66667 7.33333Z" fill="#7B98F9"/>
<path d="M8.66667 10C8.66667 9.63181 8.96514 9.33333 9.33333 9.33333H14C14.3682 9.33333 14.6667 9.63181 14.6667 10C14.6667 10.3682 14.3682 10.6667 14 10.6667H9.33333C8.96514 10.6667 8.66667 10.3682 8.66667 10Z" fill="#7B98F9"/>
<path d="M8.66667 13.3333C8.66667 12.9651 8.96514 12.6667 9.33333 12.6667H12C12.3682 12.6667 12.6667 12.9651 12.6667 13.3333C12.6667 13.7015 12.3682 14 12 14H9.33333C8.96514 14 8.66667 13.7015 8.66667 13.3333Z" fill="#7B98F9"/>
<path d="M8.66667 16.6667C8.66667 16.2985 8.96514 16 9.33333 16H12C12.3682 16 12.6667 16.2985 12.6667 16.6667C12.6667 17.0349 12.3682 17.3333 12 17.3333H9.33333C8.96514 17.3333 8.66667 17.0349 8.66667 16.6667Z" fill="#7B98F9"/>
<path d="M8.66667 20C8.66667 19.6318 8.96514 19.3333 9.33333 19.3333H13.3333C13.7015 19.3333 14 19.6318 14 20C14 20.3682 13.7015 20.6667 13.3333 20.6667H9.33333C8.96514 20.6667 8.66667 20.3682 8.66667 20Z" fill="#7B98F9"/>
<path fill-rule="evenodd" clip-rule="evenodd" d="M20 20C22.5773 20 24.6667 17.9107 24.6667 15.3333C24.6667 12.756 22.5773 10.6667 20 10.6667C17.4227 10.6667 15.3333 12.756 15.3333 15.3333C15.3333 17.9107 17.4227 20 20 20ZM20 21.3333C23.3137 21.3333 26 18.647 26 15.3333C26 12.0196 23.3137 9.33333 20 9.33333C16.6863 9.33333 14 12.0196 14 15.3333C14 18.647 16.6863 21.3333 20 21.3333Z" fill="#7B98F9"/>
<path fill-rule="evenodd" clip-rule="evenodd" d="M24.6667 15.3333C24.6667 17.9107 22.5773 20 20 20C17.4227 20 15.3333 17.9107 15.3333 15.3333C15.3333 12.756 17.4227 10.6667 20 10.6667C22.5773 10.6667 24.6667 12.756 24.6667 15.3333ZM19.3333 13.7249V12.6667C19.3333 12.2985 19.6318 12 20 12C20.3682 12 20.6667 12.2985 20.6667 12.6667V13.7251L20.889 13.4999C21.1345 13.2514 21.5325 13.2514 21.7779 13.4999C22.0234 13.7485 22.0234 14.1514 21.7779 14.4L21.495 14.6864C21.7851 14.7587 22 15.0209 22 15.3333C22 15.6271 21.81 15.8765 21.5461 15.9653L21.7779 16.2C22.0234 16.4485 22.0234 16.8514 21.7779 17.1C21.5324 17.3485 21.1345 17.3485 20.889 17.1L20.0001 16.2L19.1112 17.1C18.8658 17.3485 18.4678 17.3485 18.2223 17.1C17.9769 16.8514 17.9769 16.4485 18.2223 16.2L19.1112 15.3L18.2223 14.4C17.9768 14.1514 17.9768 13.7485 18.2223 13.4999C18.4678 13.2514 18.8657 13.2514 19.1112 13.4999L19.3333 13.7249Z" fill="#7B98F9"/>
<path d="M20.6667 12.6667C20.6667 12.2985 20.3682 12 20 12C19.6318 12 19.3333 12.2985 19.3333 12.6667V13.7249L20.0001 14.4L20.6667 13.7251V12.6667Z" fill="#7B98F9"/>
<path d="M22 15.3333C22 15.0209 21.7851 14.7587 21.495 14.6864L20.889 15.3L21.5461 15.9653C21.81 15.8765 22 15.6271 22 15.3333Z" fill="#7B98F9"/>
</svg>
