<svg width="22" height="18" viewBox="0 0 22 18" fill="none" xmlns="http://www.w3.org/2000/svg">
<path d="M13.8614 10.7172C14.6984 10.7172 15.3769 10.0387 15.3769 9.20171C15.3769 8.36474 14.6984 7.68625 13.8614 7.68625C13.0244 7.68625 12.3459 8.36474 12.3459 9.20171C12.3459 10.0387 13.0244 10.7172 13.8614 10.7172Z" fill="white"/>
<path fill-rule="evenodd" clip-rule="evenodd" d="M21.4387 14.5059V3.89757C21.4387 2.22363 20.0817 0.866638 18.4078 0.866638H3.25311C1.57916 0.866638 0.222168 2.22363 0.222168 3.89757V14.5059C0.222168 16.1798 1.57916 17.5368 3.25311 17.5368H18.4078C20.0817 17.5368 21.4387 16.1798 21.4387 14.5059ZM18.4078 2.38211H3.25311C2.41614 2.38211 1.73764 3.06061 1.73764 3.89757V14.5059C1.73764 15.3428 2.41614 16.0213 3.25311 16.0213H18.4078C19.2448 16.0213 19.9233 15.3428 19.9233 14.5059V13.7481H11.5882C9.91424 13.7481 8.55725 12.3911 8.55725 10.7172V7.68625C8.55725 6.01231 9.91424 4.65531 11.5882 4.65531H19.9233V3.89757C19.9233 3.06061 19.2448 2.38211 18.4078 2.38211ZM11.5882 6.17078H19.9233V12.2326H11.5882C10.7512 12.2326 10.0727 11.5542 10.0727 10.7172V7.68625C10.0727 6.84928 10.7512 6.17078 11.5882 6.17078Z" fill="white"/>
</svg>
