<svg width="30" height="30" viewBox="0 0 30 30" fill="none" xmlns="http://www.w3.org/2000/svg">
<rect width="30" height="30" rx="5" fill="#2C2C3E"/>
<path fill-rule="evenodd" clip-rule="evenodd" d="M6 9.75C6 8.7835 6.73263 8 7.63636 8H22.3636C23.2674 8 24 8.7835 24 9.75V11.1818H6V9.75ZM6 14.3636H24V20.25C24 21.2165 23.2674 22 22.3636 22H7.63636C6.73262 22 6 21.2165 6 20.25V14.3636ZM14.548 16.7127L15 16.3587L15.452 16.7127L17.702 18.4747C18.0325 18.7335 18.0981 19.2213 17.8485 19.5641C17.5989 19.9069 17.1286 19.9749 16.798 19.7161L15 18.308L13.202 19.7161C12.8714 19.9749 12.4011 19.9069 12.1515 19.5641C11.9019 19.2213 11.9675 18.7335 12.298 18.4747L14.548 16.7127Z" fill="#7B98F9"/>
</svg>
