<svg width="16" height="20" viewBox="0 0 16 20" fill="none" xmlns="http://www.w3.org/2000/svg">
<path d="M15.5066 4.85156L11.244 0.859394C10.9824 0.614414 10.5583 0.614414 10.2968 0.859394C10.0352 1.10437 10.0352 1.50156 10.2968 1.74654L13.4159 4.66783H3.64636C1.79676 4.66783 0.297363 6.07211 0.297363 7.80437V9.6863C0.297363 10.0328 0.597243 10.3136 0.967164 10.3136C1.33708 10.3136 1.63696 10.0328 1.63696 9.6863V7.80437C1.63696 6.76501 2.5366 5.92244 3.64636 5.92244H13.4159L10.2968 8.84373C10.0352 9.08871 10.0352 9.4859 10.2968 9.73088C10.5583 9.97586 10.9824 9.97586 11.244 9.73088L15.5066 5.73871C15.7682 5.49373 15.7682 5.09654 15.5066 4.85156Z" fill="#7B98F9"/>
<path d="M0.493543 15.1484L4.75613 19.1406C5.0177 19.3856 5.44179 19.3856 5.70337 19.1406C5.96494 18.8956 5.96494 18.4984 5.70337 18.2534L2.5842 15.3321H12.3538C14.2034 15.3321 15.7028 13.9279 15.7028 12.1956V9.68636C15.7028 9.33991 15.4029 9.05906 15.033 9.05906C14.663 9.05906 14.3632 9.33991 14.3632 9.68636V12.1956C14.3632 13.235 13.4635 14.0775 12.3538 14.0775H2.5842L5.70337 11.1562C5.96494 10.9113 5.96494 10.5141 5.70337 10.2691C5.44179 10.0241 5.0177 10.0241 4.75613 10.2691L0.493543 14.2613C0.23197 14.5062 0.23197 14.9034 0.493543 15.1484Z" fill="#7B98F9"/>
</svg>
