<svg width="19" height="23" viewBox="0 0 19 23" fill="none" xmlns="http://www.w3.org/2000/svg">
<path d="M18.758 5.15028L13.5009 0.226606C13.1783 -0.0755353 12.6552 -0.0755353 12.3326 0.226606C12.01 0.528747 12.01 1.01861 12.3326 1.32076L16.1796 4.92367H4.13043C1.84926 4.92367 0 6.65562 0 8.79208V11.1131C0 11.5404 0.369852 11.8868 0.826087 11.8868C1.28232 11.8868 1.65217 11.5404 1.65217 11.1131V8.79208C1.65217 7.5102 2.76173 6.47104 4.13043 6.47104H16.1796L12.3326 10.074C12.01 10.3761 12.01 10.866 12.3326 11.1681C12.6552 11.4702 13.1783 11.4702 13.5009 11.1681L18.758 6.24443C19.0807 5.94229 19.0807 5.45242 18.758 5.15028Z" fill="white"/>
<path d="M0.241955 17.8497L5.49914 22.7734C5.82175 23.0755 6.3448 23.0755 6.6674 22.7734C6.99001 22.4713 6.99001 21.9814 6.6674 21.6792L2.82044 18.0763H14.8696C17.1507 18.0763 19 16.3444 19 14.2079V11.1132C19 10.6859 18.6301 10.3395 18.1739 10.3395C17.7177 10.3395 17.3478 10.6859 17.3478 11.1132V14.2079C17.3478 15.4898 16.2383 16.529 14.8696 16.529H2.82044L6.6674 12.926C6.99001 12.6239 6.99001 12.134 6.6674 11.8319C6.3448 11.5298 5.82175 11.5298 5.49914 11.8319L0.241955 16.7556C-0.0806515 17.0577 -0.0806515 17.5476 0.241955 17.8497Z" fill="white"/>
</svg>
