<svg width="30" height="30" viewBox="0 0 30 30" fill="none" xmlns="http://www.w3.org/2000/svg">
<rect width="30" height="30" rx="5" fill="#2C2C3E"/>
<path d="M13.57 10.8462C12.2976 10.8462 11.2661 11.931 11.2661 13.2692C11.2661 14.6075 12.2976 15.6923 13.57 15.6923H15.5448C16.0901 15.6923 16.5322 16.1572 16.5322 16.7308C16.5322 17.3043 16.0901 17.7692 15.5448 17.7692H12.451C12.0874 17.7692 11.7927 18.0792 11.7927 18.4615C11.7927 18.8439 12.0874 19.1538 12.451 19.1538H13.8992V19.8462C13.8992 20.2285 14.1939 20.5385 14.5574 20.5385C14.921 20.5385 15.2157 20.2285 15.2157 19.8462V19.1538H15.5448C16.8172 19.1538 17.8487 18.069 17.8487 16.7308C17.8487 15.3925 16.8172 14.3077 15.5448 14.3077H13.57C13.0247 14.3077 12.5826 13.8428 12.5826 13.2692C12.5826 12.6957 13.0247 12.2308 13.57 12.2308H16.1373C16.5008 12.2308 16.7955 11.9208 16.7955 11.5385C16.7955 11.1561 16.5008 10.8462 16.1373 10.8462H15.2157V10.1538C15.2157 9.7715 14.921 9.46154 14.5574 9.46154C14.1939 9.46154 13.8992 9.7715 13.8992 10.1538V10.8462H13.57Z" fill="#7B98F9"/>
<path fill-rule="evenodd" clip-rule="evenodd" d="M14.5574 6C18.0146 6 20.993 8.15617 22.3431 11.2596C22.3715 11.2589 22.4 11.2586 22.4286 11.2586C24.401 11.2586 26 12.9403 26 15.0147C26 17.0892 24.401 18.7709 22.4286 18.7709C22.3957 18.7709 22.363 18.7704 22.3304 18.7695C20.9744 21.8573 18.0038 24 14.5574 24C9.83129 24 6 19.9706 6 15C6 10.0294 9.83129 6 14.5574 6ZM21.0085 18.4622C19.7426 17.8846 18.8571 16.5584 18.8571 15.0147C18.8571 13.4663 19.748 12.1367 21.0202 11.562C19.8258 9.08341 17.3802 7.38462 14.5574 7.38462C10.5584 7.38462 7.31653 10.7941 7.31653 15C7.31653 19.2059 10.5584 22.6154 14.5574 22.6154C17.371 22.6154 19.8098 20.9276 21.0085 18.4622ZM22.4286 13.1367C22.6258 13.1367 22.7857 13.3048 22.7857 13.5123V14.6391H23.8571C24.0544 14.6391 24.2143 14.8073 24.2143 15.0147C24.2143 15.2222 24.0544 15.3903 23.8571 15.3903H22.7857V16.5172C22.7857 16.7246 22.6258 16.8928 22.4286 16.8928C22.2313 16.8928 22.0714 16.7246 22.0714 16.5172V15.3903H21C20.8028 15.3903 20.6429 15.2222 20.6429 15.0147C20.6429 14.8073 20.8028 14.6391 21 14.6391H22.0714V13.5123C22.0714 13.3048 22.2313 13.1367 22.4286 13.1367Z" fill="#7B98F9"/>
</svg>
