<svg width="30" height="30" viewBox="0 0 30 30" fill="none" xmlns="http://www.w3.org/2000/svg">
<rect width="30" height="30" rx="5" fill="#2C2C3E"/>
<path fill-rule="evenodd" clip-rule="evenodd" d="M9.83333 6C8.26853 6 7 7.28942 7 8.88V21.12C7 22.7106 8.26853 24 9.83333 24H18.3333C19.8981 24 21.1667 22.7106 21.1667 21.12V19.968C21.1667 19.5704 20.8495 19.248 20.4583 19.248C20.0671 19.248 19.75 19.5704 19.75 19.968V21.12C19.75 21.9153 19.1157 22.56 18.3333 22.56H9.83333C9.05093 22.56 8.41667 21.9153 8.41667 21.12V8.88C8.41667 8.08471 9.05093 7.44 9.83333 7.44H18.3333C19.1157 7.44 19.75 8.08471 19.75 8.88V10.032C19.75 10.4296 20.0671 10.752 20.4583 10.752C20.8495 10.752 21.1667 10.4296 21.1667 10.032V8.88C21.1667 7.28942 19.8981 6 18.3333 6H9.83333ZM10.6061 9.68C10.2149 9.68 9.89773 10.0024 9.89773 10.4C9.89773 10.7976 10.2149 11.12 10.6061 11.12H17.5606C17.9518 11.12 18.2689 10.7976 18.2689 10.4C18.2689 10.0024 17.9518 9.68 17.5606 9.68H10.6061ZM10.6061 12.7467C10.2149 12.7467 9.89773 13.069 9.89773 13.4667C9.89773 13.8643 10.2149 14.1867 10.6061 14.1867H16.3146C16.7058 14.1867 17.0229 13.8643 17.0229 13.4667C17.0229 13.069 16.7058 12.7467 16.3146 12.7467H10.6061ZM10.6061 15.8133C10.2149 15.8133 9.89773 16.1357 9.89773 16.5333C9.89773 16.931 10.2149 17.2533 10.6061 17.2533H16.3146C16.7058 17.2533 17.0229 16.931 17.0229 16.5333C17.0229 16.1357 16.7058 15.8133 16.3146 15.8133H10.6061ZM10.6061 18.88C10.2149 18.88 9.89773 19.2024 9.89773 19.6C9.89773 19.9976 10.2149 20.32 10.6061 20.32H17.5606C17.9518 20.32 18.2689 19.9976 18.2689 19.6C18.2689 19.2024 17.9518 18.88 17.5606 18.88H10.6061ZM24 15C24 16.7894 22.5729 18.24 20.8125 18.24C19.0521 18.24 17.625 16.7894 17.625 15C17.625 13.2106 19.0521 11.76 20.8125 11.76C22.5729 11.76 24 13.2106 24 15ZM20.8125 13.344C21.0081 13.344 21.1667 13.5052 21.1667 13.704V14.64H22.0875C22.2831 14.64 22.4417 14.8012 22.4417 15C22.4417 15.1988 22.2831 15.36 22.0875 15.36H21.1667V16.296C21.1667 16.4948 21.0081 16.656 20.8125 16.656C20.6169 16.656 20.4583 16.4948 20.4583 16.296V15.36H19.5375C19.3419 15.36 19.1833 15.1988 19.1833 15C19.1833 14.8012 19.3419 14.64 19.5375 14.64H20.4583V13.704C20.4583 13.5052 20.6169 13.344 20.8125 13.344Z" fill="#7B98F9"/>
</svg>
