<svg width="30" height="30" viewBox="0 0 30 30" fill="none" xmlns="http://www.w3.org/2000/svg">
<rect width="30" height="30" rx="5" fill="#2C2C3E"/>
<path fill-rule="evenodd" clip-rule="evenodd" d="M18.5588 11.5652C19.8096 11.5652 20.8235 10.5433 20.8235 9.28261C20.8235 8.02196 19.8096 7 18.5588 7C17.3081 7 16.2941 8.02196 16.2941 9.28261C16.2941 10.5433 17.3081 11.5652 18.5588 11.5652ZM18.5588 10.2609C19.0949 10.2609 19.5294 9.82289 19.5294 9.28261C19.5294 8.74233 19.0949 8.30435 18.5588 8.30435C18.0228 8.30435 17.5882 8.74233 17.5882 9.28261C17.5882 9.82289 18.0228 10.2609 18.5588 10.2609Z" fill="#7B98F9"/>
<path fill-rule="evenodd" clip-rule="evenodd" d="M9.25884 16.3835C9.98681 15.9218 10.4706 15.1048 10.4706 14.1739C10.4706 12.7332 9.3118 11.5652 7.88235 11.5652C6.45291 11.5652 5.29412 12.7332 5.29412 14.1739C5.29412 15.1048 5.77789 15.9218 6.50587 16.3835C5.04115 16.9434 4 18.3709 4 20.0435H5.29412C5.29412 18.6027 6.45291 17.4348 7.88235 17.4348C9.3118 17.4348 10.4706 18.6027 10.4706 20.0435H11.637C11.3067 20.619 11.1176 21.2873 11.1176 22H12.4118C12.4118 20.5593 13.5706 19.3913 15 19.3913C16.4294 19.3913 17.5882 20.5593 17.5882 22H18.8824C18.8824 21.2873 18.6933 20.619 18.363 20.0435H19.5294C19.5294 18.6027 20.6882 17.4348 22.1176 17.4348C23.5471 17.4348 24.7059 18.6027 24.7059 20.0435H26C26 18.3709 24.9589 16.9434 23.4941 16.3835C24.2221 15.9218 24.7059 15.1048 24.7059 14.1739C24.7059 12.7332 23.5471 11.5652 22.1176 11.5652C20.6882 11.5652 19.5294 12.7332 19.5294 14.1739C19.5294 15.1048 20.0132 15.9218 20.7412 16.3835C19.3351 16.921 18.3194 18.258 18.2403 19.8438C17.7942 19.1642 17.1434 18.6332 16.3765 18.34C17.1045 17.8784 17.5882 17.0613 17.5882 16.1304C17.5882 14.6897 16.4294 13.5217 15 13.5217C13.5706 13.5217 12.4118 14.6897 12.4118 16.1304C12.4118 17.0613 12.8955 17.8784 13.6235 18.34C12.8566 18.6332 12.2058 19.1642 11.7597 19.8438C11.6806 18.258 10.6649 16.921 9.25884 16.3835ZM7.88235 15.4783C8.59707 15.4783 9.17647 14.8943 9.17647 14.1739C9.17647 13.4535 8.59707 12.8696 7.88235 12.8696C7.16763 12.8696 6.58824 13.4535 6.58824 14.1739C6.58824 14.8943 7.16763 15.4783 7.88235 15.4783ZM23.4118 14.1739C23.4118 14.8943 22.8324 15.4783 22.1176 15.4783C21.4029 15.4783 20.8235 14.8943 20.8235 14.1739C20.8235 13.4535 21.4029 12.8696 22.1176 12.8696C22.8324 12.8696 23.4118 13.4535 23.4118 14.1739ZM16.2941 16.1304C16.2941 16.8508 15.7147 17.4348 15 17.4348C14.2853 17.4348 13.7059 16.8508 13.7059 16.1304C13.7059 15.4101 14.2853 14.8261 15 14.8261C15.7147 14.8261 16.2941 15.4101 16.2941 16.1304Z" fill="#7B98F9"/>
<path fill-rule="evenodd" clip-rule="evenodd" d="M13.7059 9.28261C13.7059 10.5433 12.6919 11.5652 11.4412 11.5652C10.1904 11.5652 9.17647 10.5433 9.17647 9.28261C9.17647 8.02196 10.1904 7 11.4412 7C12.6919 7 13.7059 8.02196 13.7059 9.28261ZM12.4118 9.28261C12.4118 9.82289 11.9772 10.2609 11.4412 10.2609C10.9051 10.2609 10.4706 9.82289 10.4706 9.28261C10.4706 8.74233 10.9051 8.30435 11.4412 8.30435C11.9772 8.30435 12.4118 8.74233 12.4118 9.28261Z" fill="#7B98F9"/>
</svg>
