<svg width="30" height="30" viewBox="0 0 30 30" fill="none" xmlns="http://www.w3.org/2000/svg">
<rect width="30" height="30" rx="5" fill="#2C2C3E"/>
<path d="M13.327 10.3846C11.9274 10.3846 10.7927 11.59 10.7927 13.0769C10.7927 14.5638 11.9274 15.7692 13.327 15.7692H15.4993C16.0992 15.7692 16.5854 16.2858 16.5854 16.9231C16.5854 17.5603 16.0992 18.0769 15.4993 18.0769H12.0961C11.6962 18.0769 11.372 18.4213 11.372 18.8462C11.372 19.271 11.6962 19.6154 12.0961 19.6154H13.6891V20.3846C13.6891 20.8095 14.0133 21.1538 14.4132 21.1538C14.8131 21.1538 15.1373 20.8095 15.1373 20.3846V19.6154H15.4993C16.899 19.6154 18.0336 18.41 18.0336 16.9231C18.0336 15.4362 16.899 14.2308 15.4993 14.2308H13.327C12.7272 14.2308 12.2409 13.7142 12.2409 13.0769C12.2409 12.4397 12.7272 11.9231 13.327 11.9231H16.151C16.5509 11.9231 16.8751 11.5787 16.8751 11.1538C16.8751 10.729 16.5509 10.3846 16.151 10.3846H15.1373V9.61538C15.1373 9.19055 14.8131 8.84615 14.4132 8.84615C14.0133 8.84615 13.6891 9.19055 13.6891 9.61538V10.3846H13.327Z" fill="#7B98F9"/>
<path fill-rule="evenodd" clip-rule="evenodd" d="M14.4132 5C18.2161 5 21.4923 7.39575 22.9774 10.8441C23.0087 10.8433 23.04 10.8429 23.0714 10.8429C25.2411 10.8429 27 12.7114 27 15.0164C27 17.3213 25.2411 19.1899 23.0714 19.1899C23.0353 19.1899 22.9993 19.1893 22.9634 19.1883C21.4718 22.6192 18.2042 25 14.4132 25C9.21442 25 5 20.5228 5 15C5 9.47715 9.21442 5 14.4132 5ZM21.5093 18.8469C20.1168 18.2051 19.1429 16.7316 19.1429 15.0164C19.1429 13.2959 20.1228 11.8185 21.5222 11.1799C20.2083 8.42602 17.5182 6.53846 14.4132 6.53846C10.0142 6.53846 6.44818 10.3268 6.44818 15C6.44818 19.6732 10.0142 23.4615 14.4132 23.4615C17.5081 23.4615 20.1908 21.5862 21.5093 18.8469ZM23.3492 13.0519L25.1984 15.0164L23.3492 16.9809C23.1958 17.1439 22.9471 17.1439 22.7936 16.9809C22.6402 16.8179 22.6402 16.5536 22.7936 16.3907L23.6944 15.4337H21.5C21.283 15.4337 21.1071 15.2469 21.1071 15.0164C21.1071 14.7859 21.283 14.599 21.5 14.599H23.6944L22.7936 13.6421C22.6402 13.4791 22.6402 13.2148 22.7936 13.0519C22.9471 12.8889 23.1958 12.8889 23.3492 13.0519Z" fill="#7B98F9"/>
</svg>
