<svg width="24" height="24" viewBox="0 0 24 24" fill="none" xmlns="http://www.w3.org/2000/svg">
<path d="M19.4839 2.37817H4.5166C3.33571 2.37817 2.37842 3.33547 2.37842 4.51635V19.4836C2.37842 20.6645 3.33571 21.6218 4.5166 21.6218H19.4839C20.6648 21.6218 21.6221 20.6645 21.6221 19.4836V18.4968C21.6221 17.9063 22.1007 17.4277 22.6911 17.4277C23.2816 17.4277 23.7602 17.9063 23.7602 18.4968V19.4836C23.7602 21.8454 21.8456 23.76 19.4839 23.76H4.5166C2.15483 23.76 0.240234 21.8454 0.240234 19.4836V4.51635C0.240234 2.15458 2.15483 0.23999 4.5166 0.23999H19.4839C21.8456 0.23999 23.7602 2.15458 23.7602 4.51635V5.50321C23.7602 6.09365 23.2816 6.5723 22.6911 6.5723C22.1007 6.5723 21.6221 6.09365 21.6221 5.50321V4.51635C21.6221 3.33547 20.6648 2.37817 19.4839 2.37817Z" fill="white"/>
<path d="M15.2175 5.87138C14.8482 5.48631 14.2367 5.47351 13.8516 5.84277C13.4666 6.21204 13.4538 6.82354 13.823 7.2086L17.4915 11.034H5.89623C5.36273 11.034 4.93023 11.4665 4.93023 12C4.93023 12.5335 5.36273 12.966 5.89623 12.966H17.4915L13.823 16.7914C13.4538 17.1764 13.4666 17.7879 13.8516 18.1572C14.2367 18.5265 14.8482 18.5137 15.2175 18.1286L21.0946 12L15.2175 5.87138Z" fill="white"/>
</svg>
