<svg width="30" height="30" viewBox="0 0 30 30" fill="none" xmlns="http://www.w3.org/2000/svg">
<rect width="30" height="30" rx="5" fill="#2C2C3E"/>
<path fill-rule="evenodd" clip-rule="evenodd" d="M6 9.75C6 8.7835 6.73263 8 7.63636 8H22.3636C23.2674 8 24 8.7835 24 9.75V11.1818H6V9.75ZM6 14.3636H24V20.25C24 21.2165 23.2674 22 22.3636 22H7.63636C6.73262 22 6 21.2165 6 20.25V14.3636ZM14.548 19.716L15 20.07L15.452 19.716L17.702 17.954C18.0325 17.6952 18.0981 17.2074 17.8485 16.8646C17.5989 16.5218 17.1286 16.4538 16.798 16.7126L15 18.1207L13.202 16.7126C12.8714 16.4538 12.4011 16.5218 12.1515 16.8646C11.9019 17.2074 11.9675 17.6952 12.298 17.954L14.548 19.716Z" fill="#7B98F9"/>
</svg>
