<svg width="30" height="30" viewBox="0 0 30 30" fill="none" xmlns="http://www.w3.org/2000/svg">
<rect width="30" height="30" rx="5" fill="#2C2C3E"/>
<path fill-rule="evenodd" clip-rule="evenodd" d="M7.63636 8C6.73263 8 6 8.7835 6 9.75V11.1818H24V9.75C24 8.7835 23.2674 8 22.3636 8H7.63636ZM24 14.3636H6V20.25C6 21.2165 6.73262 22 7.63636 22H22.3636C23.2674 22 24 21.2165 24 20.25V14.3636ZM11.25 20.0699L10.798 19.716L8.54803 17.954C8.21748 17.6951 8.15187 17.2074 8.40148 16.8646C8.6511 16.5218 9.12141 16.4537 9.45197 16.7126L11.25 18.1207L13.048 16.7126C13.3786 16.4537 13.8489 16.5218 14.0985 16.8646C14.3481 17.2074 14.2825 17.6951 13.952 17.954L11.702 19.716L11.25 20.0699ZM18.298 19.716L18.75 20.0699L19.202 19.716L21.452 17.954C21.7825 17.6951 21.8481 17.2074 21.5985 16.8646C21.3489 16.5218 20.8786 16.4537 20.548 16.7126L18.75 18.1207L16.952 16.7126C16.6214 16.4537 16.1511 16.5218 15.9015 16.8646C15.6519 17.2074 15.7175 17.6951 16.048 17.954L18.298 19.716Z" fill="#7B98F9"/>
</svg>
