<svg width="30" height="30" viewBox="0 0 30 30" fill="none" xmlns="http://www.w3.org/2000/svg">
<rect width="30" height="30" rx="5" fill="#2C2C3E"/>
<path fill-rule="evenodd" clip-rule="evenodd" d="M9.04 5.67333C9.04 5.30146 9.34146 5 9.71333 5C10.0852 5 10.3867 5.30146 10.3867 5.67333V7.02H11.7333V5.67333C11.7333 5.30146 12.0348 5 12.4067 5C12.7785 5 13.08 5.30146 13.08 5.67333V7.02H14.4267V5.67333C14.4267 5.30146 14.7281 5 15.1 5C15.4719 5 15.7733 5.30146 15.7733 5.67333V7.02H17.12V5.67333C17.12 5.30146 17.4215 5 17.7933 5C18.1652 5 18.4667 5.30146 18.4667 5.67333V7.02H19.8133V5.67333C19.8133 5.30146 20.1148 5 20.4867 5C20.8585 5 21.16 5.30146 21.16 5.67333V7.02C21.16 7.04829 21.1583 7.07616 21.1549 7.10354C22.1055 7.34619 22.8538 8.09454 23.0965 9.04513C23.1238 9.04175 23.1517 9.04 23.18 9.04H24.5267C24.8985 9.04 25.2 9.34146 25.2 9.71333C25.2 10.0852 24.8985 10.3867 24.5267 10.3867H23.18V11.7333H24.5267C24.8985 11.7333 25.2 12.0348 25.2 12.4067C25.2 12.7785 24.8985 13.08 24.5267 13.08H23.18V14.4267H24.5267C24.8985 14.4267 25.2 14.7281 25.2 15.1C25.2 15.4719 24.8985 15.7733 24.5267 15.7733H23.18V17.12H24.5267C24.8985 17.12 25.2 17.4215 25.2 17.7933C25.2 18.1652 24.8985 18.4667 24.5267 18.4667H23.18V19.8133H24.5267C24.8985 19.8133 25.2 20.1148 25.2 20.4867C25.2 20.8585 24.8985 21.16 24.5267 21.16H23.18C23.1517 21.16 23.1238 21.1583 23.0965 21.1549C22.8538 22.1055 22.1055 22.8538 21.1549 23.0965C21.1583 23.1238 21.16 23.1517 21.16 23.18V24.5267C21.16 24.8985 20.8585 25.2 20.4867 25.2C20.1148 25.2 19.8133 24.8985 19.8133 24.5267V23.18H18.4667V24.5267C18.4667 24.8985 18.1652 25.2 17.7933 25.2C17.4215 25.2 17.12 24.8985 17.12 24.5267V23.18H15.7733V24.5267C15.7733 24.8985 15.4719 25.2 15.1 25.2C14.7281 25.2 14.4267 24.8985 14.4267 24.5267V23.18H13.08V24.5267C13.08 24.8985 12.7785 25.2 12.4067 25.2C12.0348 25.2 11.7333 24.8985 11.7333 24.5267V23.18H10.3867V24.5267C10.3867 24.8985 10.0852 25.2 9.71333 25.2C9.34146 25.2 9.04 24.8985 9.04 24.5267V23.18C9.04 23.1517 9.04175 23.1238 9.04513 23.0965C8.09454 22.8538 7.34619 22.1055 7.10354 21.1549C7.07617 21.1583 7.04829 21.16 7.02 21.16H5.67333C5.30146 21.16 5 20.8585 5 20.4867C5 20.1148 5.30146 19.8133 5.67333 19.8133H7.02V18.4667H5.67333C5.30146 18.4667 5 18.1652 5 17.7933C5 17.4215 5.30146 17.12 5.67333 17.12H7.02V15.7733H5.67333C5.30146 15.7733 5 15.4719 5 15.1C5 14.7281 5.30146 14.4267 5.67333 14.4267H7.02V13.08H5.67333C5.30146 13.08 5 12.7785 5 12.4067C5 12.0348 5.30146 11.7333 5.67333 11.7333H7.02V10.3867H5.67333C5.30146 10.3867 5 10.0852 5 9.71333C5 9.34146 5.30146 9.04 5.67333 9.04H7.02C7.04829 9.04 7.07616 9.04175 7.10354 9.04513C7.34619 8.09454 8.09454 7.3462 9.04513 7.10354C9.04175 7.07617 9.04 7.04829 9.04 7.02V5.67333ZM20.4867 8.36667C21.2304 8.36667 21.8333 8.96959 21.8333 9.71333V20.4867C21.8333 21.2304 21.2304 21.8333 20.4867 21.8333H9.71333C8.96959 21.8333 8.36667 21.2304 8.36667 20.4867V9.71333C8.36667 8.96959 8.96959 8.36667 9.71333 8.36667H20.4867ZM10.3867 12.4067C10.3867 11.2911 11.2911 10.3867 12.4067 10.3867H17.7933C18.9089 10.3867 19.8133 11.2911 19.8133 12.4067V14.2633C19.8133 14.799 19.6005 15.3128 19.2217 15.6916L15.6916 19.2217C15.3128 19.6005 14.799 19.8133 14.2633 19.8133H12.4067C11.2911 19.8133 10.3867 18.9089 10.3867 17.7933V12.4067ZM15.5284 13.5957C15.5284 13.3196 15.3045 13.0957 15.0284 13.0957C14.7522 13.0957 14.5284 13.3196 14.5284 13.5957V14.5284H13.5957C13.3196 14.5284 13.0957 14.7522 13.0957 15.0284C13.0957 15.3045 13.3196 15.5284 13.5957 15.5284H14.5284V16.461C14.5284 16.7371 14.7522 16.961 15.0284 16.961C15.3045 16.961 15.5284 16.7371 15.5284 16.461V15.5284H16.461C16.7371 15.5284 16.961 15.3045 16.961 15.0284C16.961 14.7522 16.7371 14.5284 16.461 14.5284H15.5284V13.5957Z" fill="#7B98F9"/>
</svg>
