<svg width="22" height="16" viewBox="0 0 22 16" fill="none" xmlns="http://www.w3.org/2000/svg">
<path d="M21 4.18182V4.93182H21.75V4.18182H21ZM1 4.18182H0.25V4.93182H1V4.18182ZM21 7.36364H21.75V6.61364H21V7.36364ZM1 7.36364V6.61364H0.25V7.36364H1ZM8.67776 9.55627C8.32915 9.33258 7.8652 9.43385 7.6415 9.78246C7.41781 10.1311 7.51907 10.595 7.86769 10.8187L8.67776 9.55627ZM11 11.9375L10.595 12.5687L11 12.8286L11.405 12.5687L11 11.9375ZM14.1323 10.8187C14.4809 10.595 14.5822 10.1311 14.3585 9.78246C14.1348 9.43385 13.6709 9.33258 13.3222 9.55627L14.1323 10.8187ZM2.81818 0.25C1.42709 0.25 0.25 1.34253 0.25 2.75H1.75C1.75 2.22448 2.20096 1.75 2.81818 1.75V0.25ZM19.1818 0.25H2.81818V1.75H19.1818V0.25ZM21.75 2.75C21.75 1.34253 20.5729 0.25 19.1818 0.25V1.75C19.799 1.75 20.25 2.22448 20.25 2.75H21.75ZM21.75 4.18182V2.75H20.25V4.18182H21.75ZM1 4.93182H21V3.43182H1V4.93182ZM0.25 2.75V4.18182H1.75V2.75H0.25ZM21 6.61364H1V8.11364H21V6.61364ZM21.75 13.25V7.36364H20.25V13.25H21.75ZM19.1818 15.75C20.5729 15.75 21.75 14.6575 21.75 13.25H20.25C20.25 13.7755 19.799 14.25 19.1818 14.25V15.75ZM2.81818 15.75H19.1818V14.25H2.81818V15.75ZM0.25 13.25C0.25 14.6575 1.42709 15.75 2.81818 15.75V14.25C2.20096 14.25 1.75 13.7755 1.75 13.25H0.25ZM0.25 7.36364V13.25H1.75V7.36364H0.25ZM7.86769 10.8187L10.595 12.5687L11.405 11.3063L8.67776 9.55627L7.86769 10.8187ZM11.405 12.5687L14.1323 10.8187L13.3222 9.55627L10.595 11.3063L11.405 12.5687Z" fill="white"/>
</svg>
