<svg width="22" height="16" viewBox="0 0 22 16" fill="none" xmlns="http://www.w3.org/2000/svg">
<path d="M21 4.18182V4.93182H21.75V4.18182H21ZM1 4.18182H0.25V4.93182H1V4.18182ZM21 7.36364H21.75V6.61364H21V7.36364ZM1 7.36364V6.61364H0.25V7.36364H1ZM7.86769 11.3063C7.51907 11.53 7.41781 11.9939 7.6415 12.3425C7.8652 12.6912 8.32915 12.7924 8.67776 12.5687L7.86769 11.3063ZM11 10.1875L11.405 9.55627L11 9.29638L10.595 9.55627L11 10.1875ZM13.3222 12.5687C13.6709 12.7924 14.1348 12.6912 14.3585 12.3425C14.5822 11.9939 14.4809 11.53 14.1323 11.3063L13.3222 12.5687ZM2.81818 0.25C1.42709 0.25 0.25 1.34253 0.25 2.75H1.75C1.75 2.22448 2.20096 1.75 2.81818 1.75V0.25ZM19.1818 0.25H2.81818V1.75H19.1818V0.25ZM21.75 2.75C21.75 1.34253 20.5729 0.25 19.1818 0.25V1.75C19.799 1.75 20.25 2.22448 20.25 2.75H21.75ZM21.75 4.18182V2.75H20.25V4.18182H21.75ZM1 4.93182H21V3.43182H1V4.93182ZM0.25 2.75V4.18182H1.75V2.75H0.25ZM21 6.61364H1V8.11364H21V6.61364ZM21.75 13.25V7.36364H20.25V13.25H21.75ZM19.1818 15.75C20.5729 15.75 21.75 14.6575 21.75 13.25H20.25C20.25 13.7755 19.799 14.25 19.1818 14.25V15.75ZM2.81818 15.75H19.1818V14.25H2.81818V15.75ZM0.25 13.25C0.25 14.6575 1.42709 15.75 2.81818 15.75V14.25C2.20096 14.25 1.75 13.7755 1.75 13.25H0.25ZM0.25 7.36364V13.25H1.75V7.36364H0.25ZM8.67776 12.5687L11.405 10.8187L10.595 9.55627L7.86769 11.3063L8.67776 12.5687ZM10.595 10.8187L13.3222 12.5687L14.1323 11.3063L11.405 9.55627L10.595 10.8187Z" fill="white"/>
</svg>
