<svg width="22" height="22" viewBox="0 0 22 22" fill="none" xmlns="http://www.w3.org/2000/svg">
<path d="M21.0953 19.6963L14.5014 13.1023C15.5246 11.7795 16.0781 10.1621 16.0781 8.46094C16.0781 6.42461 15.2834 4.51523 13.8463 3.07559C12.4092 1.63594 10.4947 0.84375 8.46094 0.84375C6.42715 0.84375 4.5127 1.63848 3.07559 3.07559C1.63594 4.5127 0.84375 6.42461 0.84375 8.46094C0.84375 10.4947 1.63848 12.4092 3.07559 13.8463C4.5127 15.2859 6.42461 16.0781 8.46094 16.0781C10.1621 16.0781 11.777 15.5246 13.0998 14.5039L19.6938 21.0953C19.7131 21.1147 19.736 21.13 19.7613 21.1405C19.7866 21.1509 19.8137 21.1563 19.841 21.1563C19.8684 21.1563 19.8955 21.1509 19.9207 21.1405C19.946 21.13 19.9689 21.1147 19.9883 21.0953L21.0953 19.9908C21.1147 19.9715 21.13 19.9485 21.1405 19.9233C21.1509 19.898 21.1563 19.8709 21.1563 19.8436C21.1563 19.8162 21.1509 19.7891 21.1405 19.7639C21.13 19.7386 21.1147 19.7156 21.0953 19.6963ZM12.4828 12.4828C11.4063 13.5568 9.9793 14.1484 8.46094 14.1484C6.94258 14.1484 5.51562 13.5568 4.43906 12.4828C3.36504 11.4063 2.77344 9.9793 2.77344 8.46094C2.77344 6.94258 3.36504 5.51309 4.43906 4.43906C5.51562 3.36504 6.94258 2.77344 8.46094 2.77344C9.9793 2.77344 11.4088 3.3625 12.4828 4.43906C13.5568 5.51562 14.1484 6.94258 14.1484 8.46094C14.1484 9.9793 13.5568 11.4088 12.4828 12.4828Z" fill="white"/>
</svg>
